<?xml version="1.0" ?>
<!-- Uploaded to: SVG Repo, www.svgrepo.com, Generator: SVG Repo Mixer Tools -->
<svg width="800px" height="800px" viewBox="0 0 20 20" version="1.1" xmlns="http://www.w3.org/2000/svg">
<g id="layer1">
<path d="M 5 3 L 5 4 L 0 4 L 0 18 L 20 18 L 20 4 L 15 4 L 15 3 L 14 3 L 14 4 L 6 4 L 6 3 L 5 3 z M 1 5 L 5 5 L 5 6 L 6 6 L 6 5 L 14 5 L 14 6 L 15 6 L 15 5 L 19 5 L 19 17 L 1 17 L 1 5 z M 2 8 L 2 15 L 8 15 L 8 8 L 2 8 z M 3 9 L 7 9 L 7 14 L 3 14 L 3 9 z M 10 9 L 10 10 L 17 10 L 17 9 L 10 9 z M 10 11 L 10 12 L 17 12 L 17 11 L 10 11 z M 10 13 L 10 14 L 17 14 L 17 13 L 10 13 z " style="fill:#222222; fill-opacity:1; stroke:none; stroke-width:0px;"/>
</g>
</svg>